<svg height="512" viewBox="0 0 60 60" width="512" xmlns="http://www.w3.org/2000/svg"><g id="Page-1" fill="none" fill-rule="evenodd"><g id="049---Contacts" fill-rule="nonzero"><rect id="Rectangle-path" fill="#cad9fc" height="58" rx="4" width="52" x="7" y="1"/><rect id="Rectangle-path" fill="#e8edfc" height="58" rx="4" width="49" x="7" y="1"/><path id="Shape" d="m17 .99999985v58.00000035l-6-.0000002c-1.06095541.0002919-2.07854066-.4210417-2.82874946-1.1712505-.75020879-.7502088-1.17154242-1.7677941-1.17125054-2.8287495v-50c-.00029188-1.06095541.42104175-2.07854066 1.17125054-2.82874946.7502088-.75020879 1.76779405-1.17154242 2.82874946-1.17125054z" fill="#a4c2f7"/><path id="Shape" d="m13 8c-.0024782 1.65582667-1.3441733 2.9975218-3 3h-6c-.795975.0010634-1.55965477-.3146656-2.12249459-.8775054-.56283982-.56283983-.87856884-1.3265196-.87750541-2.1224946-.00202922-.34156825.0589926-.68057834.18-1 .14211545-.42313666.38192775-.80683633.7-1.12.56160105-.5634695 1.3244539-.8801254 2.12-.88h6c1.2713341-.00611673 2.40537.79816403 2.82 2 .1210074.31942166.1820292.65843175.18 1z" fill="#e8edfc"/><path id="Shape" d="m13 19c-.0024782 1.6558267-1.3441733 2.9975218-3 3h-6c-.795975.0010634-1.55965477-.3146656-2.12249459-.8775054s-.87856884-1.3265196-.87750541-2.1224946c-.00202922-.3415683.0589926-.6805783.18-1 .14211545-.4231367.38192775-.8068363.7-1.12.56160105-.5634695 1.3244539-.8801254 2.12-.88h6c1.2713341-.0061167 2.40537.798164 2.82 2 .1210074.3194217.1820292.6584317.18 1z" fill="#e8edfc"/><path id="Shape" d="m13 30c-.0024782 1.6558267-1.3441733 2.9975218-3 3h-6c-.795975.0010634-1.55965477-.3146656-2.12249459-.8775054s-.87856884-1.3265196-.87750541-2.1224946c-.00202922-.3415683.0589926-.6805783.18-1 .14211545-.4231367.38192775-.8068363.7-1.12.56160105-.5634695 1.3244539-.8801254 2.12-.88h6c1.2713341-.0061167 2.40537.798164 2.82 2 .1210074.3194217.1820292.6584317.18 1z" fill="#e8edfc"/><path id="Shape" d="m13 41c-.0024782 1.6558267-1.3441733 2.9975218-3 3h-6c-.795975.0010634-1.55965477-.3146656-2.12249459-.8775054s-.87856884-1.3265196-.87750541-2.1224946c-.00202922-.3415683.0589926-.6805783.18-1 .14211545-.4231367.38192775-.8068363.7-1.12.56160105-.5634695 1.3244539-.8801254 2.12-.88h6c1.2713341-.0061167 2.40537.798164 2.82 2 .1210074.3194217.1820292.6584317.18 1z" fill="#e8edfc"/><path id="Shape" d="m13 52c-.0024782 1.6558267-1.3441733 2.9975218-3 3h-6c-.795975.0010634-1.55965477-.3146656-2.12249459-.8775054s-.87856884-1.3265196-.87750541-2.1224946c-.00202922-.3415683.0589926-.6805783.18-1 .14211545-.4231367.38192775-.8068363.7-1.12.56160105-.5634695 1.3244539-.8801254 2.12-.88h6c1.2713341-.0061167 2.40537.798164 2.82 2 .1210074.3194217.1820292.6584317.18 1z" fill="#e8edfc"/><path id="Shape" d="m55 30c.0003979 4.5088023-1.7905406 8.83305-4.9787453 12.0212547s-7.5124524 4.9791432-12.0212547 4.9787453c-.500863.002095-1.0015089-.0212685-1.5-.07-8.7725075-.775363-15.4996324-8.1232937-15.4996324-16.93s6.7271249-16.154637 15.4996324-16.93c.4984911-.0487315.999137-.072095 1.5-.07 4.5088023-.0003979 8.83305 1.7905406 12.0212547 4.9787453s4.9791432 7.5124524 4.9787453 12.0212547z" fill="#7facfa"/><path id="Shape" d="m52 30c.0155015 8.8128585-6.7199815 16.1697441-15.5 16.93h-.04c-.2-.02-.39-.04-.59-.07-.25-.02-.49-.06-.73-.1-.16-.03-.31-.05-.46-.09-.191894-.0304056-.382135-.0704563-.57-.12-.26-.06-.51-.12-.77-.2-.8234143-.229235-1.6262127-.5269393-2.4-.89-.23-.1-.45-.21-.67-.32-.26-.13-.52-.27-.77-.42-.25-.14-.49-.29-.73-.45-.4895374-.3037731-.9573348-.6412555-1.4-1.01-.19-.15-.38-.31-.56-.47-.4675805-.4042745-.91164-.8349788-1.33-1.29-4.3789038-4.7667029-5.6703979-11.6067508-3.3310407-17.6419528s7.9034695-10.2178886 14.3510407-10.7880472c8.775586.7692434 15.5061588 8.1207658 15.5 16.93z" fill="#a4c2f7"/><circle id="Oval" cx="38" cy="25" fill="#fff" r="7"/><path id="Shape" d="m50.52 41.49v.01c-3.2172766 3.5080961-7.7600007 5.5037017-12.52 5.5-.500863.002095-1.0015089-.0212685-1.5-.07 5.3565767-.462824 10.1762844-3.4385019 12.99-8.02.4337232.8211011.7789938 1.6859537 1.03 2.58z" fill="#cad9fc"/><path id="Shape" d="m49.49 38.91c-2.8137156 4.5814981-7.6334233 7.557176-12.99 8.02h-.04c-.2-.02-.39-.04-.59-.07-.25-.02-.49-.06-.73-.1-.16-.03-.31-.05-.46-.09-.191894-.0304056-.382135-.0704563-.57-.12-.26-.06-.51-.12-.77-.2-.8234143-.229235-1.6262127-.5269393-2.4-.89-.23-.1-.45-.21-.67-.32-.26-.13-.52-.27-.77-.42-.25-.14-.49-.29-.73-.45-.4849981-.3104989-.9523839-.6476844-1.4-1.01-.19-.15-.38-.31-.56-.47-.4675805-.4042745-.91164-.8349788-1.33-1.29v-.01c1.4371634-5.1189172 5.8454557-8.847566 11.1318599-9.4156178 5.2864042-.5680517 10.3862354 2.1388995 12.8781401 6.8356178z" fill="#e8edfc"/><path id="Rectangle-path" d="m7 33h3v5h-3z" fill="#fff"/><path id="Shape" d="m4 30c-.00202922-.3415683.0589926-.6805783.18-1 .14211545-.4231367.38192775-.8068363.7-1.12.56160105-.5634695 1.3244539-.8801254 2.12-.88h-3c-.7955461-.0001254-1.55839895.3165305-2.12.88-.31807225.3131637-.55788455.6968633-.7 1.12-.1210074.3194217-.18202922.6584317-.18 1-.00106343.795975.31466559 1.5596548.87750541 2.1224946s1.32651959.8785688 2.12249459.8775054l3 .0000027c-.795975.0010607-1.55965477-.3146683-2.12249459-.8775081s-.87856884-1.3265196-.87750541-2.1224946z" fill="#fff"/><path id="Shape" d="m11 59 3 .0000002c-1.0609554.0002917-2.0785407-.4210419-2.8287495-1.1712507s-1.17154238-1.7677941-1.1712505-2.8287495h-3.00000015c-.00029173 1.0609554.4210419 2.0785407 1.17125069 2.8287495.7502088.7502088 1.76779405 1.1715424 2.82874946 1.1712505z" fill="#fff"/><path id="Shape" d="m1.88 49.88c-.31807225.3131637-.55788455.6968633-.7 1.12-.1210074.3194217-.18202922.6584317-.18 1-.00106343.795975.31466559 1.5596548.87750541 2.1224946s1.32651959.8785688 2.12249459.8775054l3 .0000027c-.795975.0010607-1.55965477-.3146683-2.12249459-.8775081s-.87856884-1.3265196-.87750541-2.1224946c-.00202922-.3415683.0589926-.6805783.18-1 .14211545-.4231367.38192775-.8068363.7-1.12.56160105-.5634695 1.3244539-.8801254 2.12-.88h-3c-.7955461-.0001254-1.55839895.3165305-2.12.88z" fill="#fff"/><path id="Rectangle-path" d="m7 22h3v5h-3z" fill="#fff"/><path id="Rectangle-path" d="m7 44h3v5h-3z" fill="#fff"/><path id="Shape" d="m4 41c-.00202922-.3415683.0589926-.6805783.18-1 .14211545-.4231367.38192775-.8068363.7-1.12.56160105-.5634695 1.3244539-.8801254 2.12-.88h-3c-.7955461-.0001254-1.55839895.3165305-2.12.88-.31807225.3131637-.55788455.6968633-.7 1.12-.1210074.3194217-.18202922.6584317-.18 1-.00106343.795975.31466559 1.5596548.87750541 2.1224946s1.32651959.8785688 2.12249459.8775054l3 .0000027c-.795975.0010607-1.55965477-.3146683-2.12249459-.8775081s-.87856884-1.3265196-.87750541-2.1224946z" fill="#fff"/><path id="Shape" d="m14 .99999985-3 .00000015c-1.06095541-.00029188-2.07854066.42104175-2.82874946 1.17125054-.75020879.7502088-1.17154242 1.76779405-1.17125069 2.82874946h3.00000015c-.00029188-1.06095541.4210417-2.07854066 1.1712505-2.82874946.7502088-.75020879 1.7677941-1.17154242 2.8287495-1.17125069z" fill="#fff"/><path id="Shape" d="m4 8c-.00202922-.34156825.0589926-.68057834.18-1 .14211545-.42313666.38192775-.80683633.7-1.12.56160105-.5634695 1.3244539-.8801254 2.12-.88000004l-3 .00000004c-.7955461-.0001254-1.55839895.3165305-2.12.88-.31807225.31316367-.55788455.69686334-.7 1.12-.1210074.31942166-.18202922.65843175-.18 1-.00106343.795975.31466559 1.55965477.87750541 2.1224946.56283982.5628398 1.32651959.8785688 2.12249459.8775054l3 .0000027c-.795975.0010607-1.55965477-.3146683-2.12249459-.8775081-.56283982-.56283983-.87856884-1.3265196-.87750541-2.1224946z" fill="#fff"/><path id="Shape" d="m4 19c-.00202922-.3415683.0589926-.6805783.18-1 .14211545-.4231367.38192775-.8068363.7-1.12.56160105-.5634695 1.3244539-.8801254 2.12-.88h-3c-.7955461-.0001254-1.55839895.3165305-2.12.88-.31807225.3131637-.55788455.6968633-.7 1.12-.1210074.3194217-.18202922.6584317-.18 1-.00106343.795975.31466559 1.5596548.87750541 2.1224946s1.32651959.8785688 2.12249459.8775054l3 .0000027c-.795975.0010607-1.55965477-.3146683-2.12249459-.8775081s-.87856884-1.3265196-.87750541-2.1224946z" fill="#fff"/><path id="Rectangle-path" d="m7 11h3v5h-3z" fill="#fff"/><path id="Shape" d="m7 39c-.55228475 0-1-.4477153-1-1v-5c0-.5522847.44771525-1 1-1s1 .4477153 1 1v5c0 .5522847-.44771525 1-1 1z" fill="#428dff"/><path id="Shape" d="m7 17c-.55228475 0-1-.4477153-1-1v-5c0-.5522847.44771525-1 1-1s1 .4477153 1 1v5c0 .5522847-.44771525 1-1 1z" fill="#428dff"/><path id="Shape" d="m55 60h-13-31v-2h31 13z" fill="#fff"/><g fill="#428dff"><path id="Shape" d="m50 59c.0015928.5516236.4483764.9984072 1 1h4v-2h-4c-.5516009.0016474-.9983526.4483991-1 1z"/><path id="Shape" d="m11 58v2h32c.5522847 0 1-.4477153 1-1s-.4477153-1-1-1z"/><path id="Shape" d="m47 60c.2647108-.0039589.5182135-.1075022.71-.29l.12-.15c.037828-.055756.068092-.116284.09-.18.0288933-.0566601.0491186-.117336.06-.18.0112482-.0661287.0179306-.1329534.02-.2-.0036835-.264767-.1072663-.5183662-.29-.71-.233753-.2427102-.575294-.3491927-.9055634-.2823284-.3302694.0668644-.6034969.2978093-.7244366.6123284-.051241.1202223-.07842.2493227-.08.38-.0027011.2660353.1017882.5219616.2899133.7100867s.4440514.2926144.7100867.2899133z"/><path id="Shape" d="m55 60c-.5522847 0-1-.4477153-1-1s.4477153-1 1-1c1.6561003-.0018187 2.9981813-1.3438997 3-3v-50c-.0018187-1.65610033-1.3438997-2.99818129-3-3h-44c-1.65610033.00181871-2.99818129 1.34389967-3 3 0 .55228475-.44771525 1-1 1s-1-.44771525-1-1c.00325114-2.76007596 2.23992404-4.99674886 5-5h44c2.760076.00325114 4.9967489 2.23992404 5 5v50c-.0032511 2.760076-2.239924 4.9967489-5 5z"/><path id="Shape" d="m11 60c-2.76007596-.0032511-4.99674886-2.239924-5-5 0-.5522847.44771525-1 1-1s1 .4477153 1 1c.00181871 1.6561003 1.34389967 2.9981813 3 3 .5522847 0 1 .4477153 1 1s-.4477153 1-1 1z"/><path id="Shape" d="m7 28c-.55228475 0-1-.4477153-1-1v-5c0-.5522847.44771525-1 1-1s1 .4477153 1 1v5c0 .5522847-.44771525 1-1 1z"/><path id="Shape" d="m7 50c-.55228475 0-1-.4477153-1-1v-5c0-.5522847.44771525-1 1-1s1 .4477153 1 1v5c0 .5522847-.44771525 1-1 1z"/><path id="Shape" d="m10 12h-6c-2.209139 0-4-1.790861-4-4s1.790861-4 4-4h6c2.209139 0 4 1.790861 4 4s-1.790861 4-4 4zm-6-6c-1.1045695 0-2 .8954305-2 2s.8954305 2 2 2h6c1.1045695 0 2-.8954305 2-2s-.8954305-2-2-2z"/><path id="Shape" d="m10 23h-6c-2.209139 0-4-1.790861-4-4s1.790861-4 4-4h6c2.209139 0 4 1.790861 4 4s-1.790861 4-4 4zm-6-6c-1.1045695 0-2 .8954305-2 2s.8954305 2 2 2h6c1.1045695 0 2-.8954305 2-2s-.8954305-2-2-2z"/><path id="Shape" d="m10 34h-6c-2.209139 0-4-1.790861-4-4s1.790861-4 4-4h6c2.209139 0 4 1.790861 4 4s-1.790861 4-4 4zm-6-6c-1.1045695 0-2 .8954305-2 2s.8954305 2 2 2h6c1.1045695 0 2-.8954305 2-2s-.8954305-2-2-2z"/><path id="Shape" d="m10 45h-6c-2.209139 0-4-1.790861-4-4s1.790861-4 4-4h6c2.209139 0 4 1.790861 4 4s-1.790861 4-4 4zm-6-6c-1.1045695 0-2 .8954305-2 2s.8954305 2 2 2h6c1.1045695 0 2-.8954305 2-2s-.8954305-2-2-2z"/><path id="Shape" d="m10 56h-6c-2.209139 0-4-1.790861-4-4s1.790861-4 4-4h6c2.209139 0 4 1.790861 4 4s-1.790861 4-4 4zm-6-6c-1.1045695 0-2 .8954305-2 2s.8954305 2 2 2h6c1.1045695 0 2-.8954305 2-2s-.8954305-2-2-2z"/><path id="Shape" d="m17 60c-.5522847 0-1-.4477153-1-1v-58c0-.55228475.4477153-1 1-1s1 .44771525 1 1v58c0 .5522847-.4477153 1-1 1z"/><path id="Shape" d="m38 48c-9.9411255 0-18-8.0588745-18-18s8.0588745-18 18-18 18 8.0588745 18 18c-.0115172 9.936351-8.063649 17.9884828-18 18zm0-34c-8.836556 0-16 7.163444-16 16s7.163444 16 16 16 16-7.163444 16-16c-.0100847-8.8323754-7.1676246-15.9899153-16-16z"/><path id="Shape" d="m38 33c-4.418278 0-8-3.581722-8-8s3.581722-8 8-8 8 3.581722 8 8c-.0050699 4.4161763-3.5838237 7.9949301-8 8zm0-14c-3.3137085 0-6 2.6862915-6 6s2.6862915 6 6 6 6-2.6862915 6-6c-.0036374-3.3122007-2.6877993-5.9963626-6-6z"/><path id="Shape" d="m50.5186 42.5c-.4488873-.0005894-.8424824-.2999653-.9629-.7324-1.4494933-5.1835204-6.1733293-8.7676228-11.5557-8.7676228s-10.1062067 3.5841024-11.5557 8.7676228c-.0956043.3443504-.367655.6115391-.7136734.7009186s-.7134359-.012629-.96385-.2676-.3457809-.6241682-.2501766-.9685186c1.6904436-6.049057 7.2025808-10.2319867 13.4834-10.2319867s11.7929564 4.1829297 13.4834 10.2319867c.1476469.5323296-.1640424 1.0835939-.6963 1.2315-.0875007.0238986-.1777943.0360386-.2685.0361z"/></g></g></g></svg>